<svg width="42" height="42" viewBox="0 0 42 42" fill="none" xmlns="http://www.w3.org/2000/svg">
<path d="M18.6343 41.4421H6.73984C4.39378 41.4399 2.49248 39.5384 2.49023 37.1922V17.4107C0.824668 16.2287 0.306092 13.9877 1.28305 12.1941C3.11829 8.91486 4.99024 5.68253 6.8316 2.58479C7.57012 1.37547 8.88948 0.642948 10.3063 0.65543C11.17 0.664205 12.01 0.938316 12.7125 1.44073L12.7615 1.47132C13.6016 1.96076 21.7175 6.79192 28.2408 10.6728L34.0299 14.1151L34.295 14.2722C38.8179 16.9457 39.8354 17.5534 39.8925 17.5922C41.5575 18.7711 42.0696 21.0137 41.0813 22.7986C39.2808 26.0146 37.4109 29.2469 35.5328 32.4079C34.8038 33.6041 33.5077 34.3379 32.107 34.3473C31.8325 34.3474 31.5589 34.3166 31.2913 34.2555C31.0548 34.3962 29.7497 35.2344 28.096 36.2948C25.1535 38.1812 21.1322 40.761 20.6673 40.9996C20.04 41.3225 19.339 41.475 18.6343 41.4421ZM5.88951 23.1494V37.1922C5.88951 37.6618 6.27022 38.0426 6.73984 38.0426H14.5356C11.5727 33.0401 8.66481 28.0274 5.88951 23.1494ZM8.65869 21.11C9.47436 22.511 18.2754 37.6938 18.3488 37.7958C18.4647 37.9464 18.6441 38.0346 18.8341 38.0344C18.9343 38.0344 19.0331 38.01 19.1216 37.963C19.3969 37.808 27.6739 32.4895 27.7554 32.4364C27.1151 32.0592 22.4822 29.2979 17.5759 26.3756L8.61791 21.0489L8.63218 21.0713L8.65257 21.106V21.1182L8.65869 21.11ZM9.62525 4.53031C7.97761 7.18143 4.29081 13.7644 4.24187 13.8847C4.12097 14.1736 4.22823 14.5075 4.49473 14.6719C4.76593 14.833 31.7257 30.8968 31.9826 30.9375C32.0152 30.9399 32.0479 30.9399 32.0805 30.9375C32.302 30.9383 32.5078 30.823 32.6229 30.6337C34.2828 27.8459 38.1062 21.1365 38.1164 21.1161C38.2345 20.8261 38.127 20.4931 37.8615 20.3269C37.6025 20.1719 10.6938 4.17955 10.5204 4.10409C10.4417 4.07092 10.3571 4.05359 10.2717 4.05311C10.0569 4.05427 9.85707 4.16302 9.73945 4.34269L9.72517 4.36716L9.70886 4.39164L9.68439 4.43242V4.44262L9.6538 4.49156L9.62322 4.53031H9.62525ZM12.3842 15.7262C10.5093 15.7251 8.98979 14.2051 8.98905 12.33C8.9883 10.455 10.5066 8.9338 12.3815 8.93118C14.2564 8.92855 15.779 10.4455 15.7835 12.3205C15.7813 14.1971 14.2607 15.7178 12.3842 15.7201V15.7262Z" fill="#00B5C7"/>
</svg>
