<svg width="33" height="37" viewBox="0 0 33 37" fill="none" xmlns="http://www.w3.org/2000/svg">
<path fill-rule="evenodd" clip-rule="evenodd" d="M18.1077 1.37848L19.6388 4.50871L30.4219 4.58295C31.6081 4.59112 32.5719 5.56593 32.5637 6.74921L32.4446 23.9605C32.4364 25.1438 31.4592 26.1052 30.2731 26.0971L18.6489 26.017C17.8509 26.0115 17.0993 25.5545 16.7377 24.8205L15.2065 21.6903L4.42341 21.6161L4.33409 34.5245C4.3259 35.7078 3.34872 36.6693 2.16258 36.6611C0.976438 36.6529 0.0126579 35.6781 0.0208456 34.4948L0.244146 2.22368C0.252334 1.0404 1.22951 0.078947 2.41565 0.0871131L16.1749 0.18184C16.9944 0.187482 17.7461 0.644475 18.1077 1.37848ZM19.5198 21.72L28.1462 21.7794L28.2356 8.87093L17.4525 8.79669L15.3256 4.47902L4.5425 4.40478L4.45318 17.3132L17.3929 17.4023L19.5198 21.72Z" fill="#2D3E50"/>
</svg>
