<svg width="37" height="37" viewBox="0 0 37 37" fill="none" xmlns="http://www.w3.org/2000/svg">
<path d="M18.393 36.8465C8.23804 36.8465 0.00585938 28.6143 0.00585938 18.4594C0.00585938 8.30445 8.23804 0.0722656 18.393 0.0722656C28.5479 0.0722656 36.78 8.30445 36.78 18.4594C36.7689 28.6097 28.5432 36.8353 18.393 36.8465ZM18.393 3.74968C10.269 3.74968 3.68328 10.3354 3.68328 18.4594C3.68328 26.5833 10.269 33.169 18.393 33.169C26.5169 33.169 33.1026 26.5833 33.1026 18.4594C33.0935 10.3392 26.5131 3.7588 18.393 3.74968ZM27.5865 20.2981H16.5542V9.26581H20.2317V16.6207H27.5865V20.2981Z" fill="#2E3A59"/>
</svg>
