<svg width="23" height="22" viewBox="0 0 23 22" fill="none" xmlns="http://www.w3.org/2000/svg">
<path d="M20.289 21.25L12.976 13.9362C9.7228 16.2489 5.24003 15.6832 2.66346 12.6348C0.0868819 9.58644 0.276073 5.07235 3.09869 2.25022C5.92056 -0.573132 10.4354 -0.76313 13.4845 1.81316C16.5336 4.38944 17.0997 8.87237 14.7866 12.1257L22.0996 19.4395L20.2902 21.2487L20.289 21.25ZM8.52679 2.55985C6.10027 2.55931 4.00681 4.26251 3.51389 6.6383C3.02096 9.01408 4.26404 11.4095 6.49052 12.3742C8.717 13.3389 11.3149 12.6078 12.7114 10.6235C14.1079 8.63928 13.9192 5.9472 12.2594 4.1772L13.0336 4.94492L12.1609 4.07484L12.1455 4.05948C11.1881 3.09622 9.88496 2.55619 8.52679 2.55985Z" fill="#00B5C7"/>
</svg>
