<svg width="37" height="37" viewBox="0 0 37 37" fill="none" xmlns="http://www.w3.org/2000/svg">
<path d="M4.34521 18.6915L4.3507 18.7175C5.13171 22.4255 7.63066 25.6089 11.1673 27.2165L18.393 30.5008V26.6314H22.479C28.1206 26.6314 32.694 22.058 32.694 16.4163V14.3733C32.694 8.73172 28.1206 4.15829 22.479 4.15829H14.3069C8.66532 4.15829 4.09188 8.73172 4.09188 14.3733V16.4163C4.09188 17.1935 4.17792 17.9456 4.33939 18.6655L4.34521 18.6915ZM22.479 36.8465L9.47649 30.9362C4.74128 28.7839 1.3977 24.5223 0.352412 19.5597C0.125558 18.5482 0.00585938 17.4963 0.00585938 16.4163V14.3733C0.00585938 6.47507 6.40867 0.0722656 14.3069 0.0722656H22.479C30.3772 0.0722656 36.78 6.47507 36.78 14.3733V16.4163C36.78 24.3146 30.3772 30.7174 22.479 30.7174V36.8465Z" fill="#2E3A59"/>
</svg>
