<svg width="37" height="37" viewBox="0 0 37 37" fill="none" xmlns="http://www.w3.org/2000/svg">
<path d="M18.393 36.8465C8.23804 36.8465 0.00585938 28.6143 0.00585938 18.4594C0.00585938 8.30445 8.23804 0.0722656 18.393 0.0722656C28.5479 0.0722656 36.78 8.30445 36.78 18.4594C36.7689 28.6097 28.5432 36.8353 18.393 36.8465ZM18.3635 33.169H18.393C26.514 33.1609 33.092 26.5731 33.0879 18.452C33.0839 10.331 26.4993 3.74969 18.3782 3.74969C10.2572 3.74969 3.67263 10.331 3.66857 18.452C3.66451 26.5731 10.2425 33.1609 18.3635 33.169ZM14.7155 27.6529L7.3607 20.2981L9.95328 17.7055L14.7155 22.4494L26.8326 10.3323L29.4252 12.9432L14.7155 27.6529Z" fill="#2D3E50"/>
</svg>
