<svg width="29" height="29" viewBox="0 0 29 29" fill="none" xmlns="http://www.w3.org/2000/svg">
<path d="M14.49 28.9133C6.48739 28.9133 0 22.4409 0 14.4567C0 6.47247 6.48739 0 14.49 0C22.4926 0 28.98 6.47247 28.98 14.4567C28.9712 22.4372 22.4889 28.9046 14.49 28.9133ZM14.4668 26.022H14.49C20.8898 26.0156 26.0736 20.836 26.0704 14.4509C26.0672 8.06579 20.8782 2.89134 14.4784 2.89134C8.07858 2.89134 2.88961 8.06579 2.88641 14.4509C2.88321 20.836 8.06699 26.0156 14.4668 26.022ZM11.592 21.685L5.796 15.9023L7.83908 13.8639L11.592 17.5938L21.1409 8.06682L23.184 10.1197L11.592 21.685Z" fill="white"/>
</svg>
