<svg width="22" height="18" viewBox="0 0 22 18" fill="none" xmlns="http://www.w3.org/2000/svg">
<path d="M19.1249 17.0009H2.12499C0.988667 17.0349 0.0386922 16.1438 0 15.0076V1.99315C0.0386887 0.857139 0.988844 -0.0336314 2.12499 0.000975132H19.1249C20.261 -0.0336314 21.2112 0.857139 21.2499 1.99315V15.0087C21.2106 16.1444 20.2608 17.0349 19.1249 17.0009ZM2.12499 2.12596V14.8642L19.1249 14.8759V2.13765L2.12499 2.12596ZM12.1443 12.7509H4.24997C4.32809 11.8712 4.74439 11.0561 5.41128 10.4772C6.15377 9.74055 7.15144 9.3182 8.19713 9.29779C9.24283 9.3182 10.2405 9.74055 10.983 10.4772C11.6497 11.0563 12.066 11.8713 12.1443 12.7509ZM16.9999 11.6884H13.8124V9.56341H16.9999V11.6884ZM8.19713 8.50092C7.62772 8.52071 7.07564 8.30319 6.67276 7.9003C6.26988 7.49742 6.05236 6.94535 6.07215 6.37593C6.05268 5.80661 6.2703 5.25472 6.67311 4.85191C7.07592 4.4491 7.62781 4.23148 8.19713 4.25095C8.76646 4.23148 9.31834 4.4491 9.72115 4.85191C10.124 5.25472 10.3416 5.80661 10.3221 6.37593C10.3419 6.94535 10.1244 7.49742 9.7215 7.9003C9.31862 8.30319 8.76655 8.52071 8.19713 8.50092ZM16.9999 7.43843H12.7499V5.31344H16.9999V7.43843Z" fill="white"/>
</svg>
