<svg width="32" height="33" viewBox="0 0 32 33" fill="none" xmlns="http://www.w3.org/2000/svg">
<path d="M16 32.1128C7.16344 32.1128 0 24.9494 0 16.1128C0 7.27624 7.16344 0.112793 16 0.112793C24.8366 0.112793 32 7.27624 32 16.1128C31.9903 24.9453 24.8325 32.1031 16 32.1128ZM16 3.31279C8.93075 3.31279 3.2 9.04355 3.2 16.1128C3.2 23.182 8.93075 28.9128 16 28.9128C23.0692 28.9128 28.8 23.182 28.8 16.1128C28.7921 9.04684 23.066 3.32073 16 3.31279ZM24 17.7128H14.4V8.11279H17.6V14.5128H24V17.7128Z" fill="#2E3A59"/>
</svg>
