<svg width="33" height="30" viewBox="0 0 33 30" fill="none" xmlns="http://www.w3.org/2000/svg">
<path d="M14.5385 6.57433C14.5385 10.1429 11.6455 13.0359 8.07692 13.0359C4.50831 13.0359 1.61538 10.1429 1.61538 6.57433C1.61538 3.00572 4.50831 0.112793 8.07692 0.112793C11.6455 0.112793 14.5385 3.00572 14.5385 6.57433ZM11.3077 6.57433C11.3077 4.79003 9.86123 3.34356 8.07692 3.34356C6.29262 3.34356 4.84615 4.79003 4.84615 6.57433C4.84615 8.35864 6.29262 9.8051 8.07692 9.8051C9.86123 9.8051 11.3077 8.35864 11.3077 6.57433Z" fill="#2E3A59"/>
<path d="M30.6923 13.8436C30.6923 16.9661 28.161 19.4974 25.0385 19.4974C21.9159 19.4974 19.3846 16.9661 19.3846 13.8436C19.3846 10.721 21.9159 8.18972 25.0385 8.18972C28.161 8.18972 30.6923 10.721 30.6923 13.8436ZM27.4615 13.8436C27.4615 12.5053 26.3767 11.4205 25.0385 11.4205C23.7002 11.4205 22.6154 12.5053 22.6154 13.8436C22.6154 15.1818 23.7002 16.2666 25.0385 16.2666C26.3767 16.2666 27.4615 15.1818 27.4615 13.8436Z" fill="#2E3A59"/>
<path d="M12.9231 29.1897V22.7282C12.9231 20.0517 10.7534 17.882 8.07692 17.882C5.40047 17.882 3.23077 20.0517 3.23077 22.7282V29.1897H0V22.7282C0 18.2674 3.61616 14.6513 8.07692 14.6513C12.5377 14.6513 16.1538 18.2674 16.1538 22.7282V29.1897H12.9231Z" fill="#2E3A59"/>
<path d="M29.0769 28.382V29.1897H32.3077V28.382C32.3077 24.3673 29.0531 21.1128 25.0385 21.1128C21.0238 21.1128 17.7692 24.3673 17.7692 28.382V29.1897H21V28.382C21 26.1516 22.8081 24.3436 25.0385 24.3436C27.2688 24.3436 29.0769 26.1516 29.0769 28.382Z" fill="#2E3A59"/>
</svg>
