<svg width="33" height="37" viewBox="0 0 33 37" fill="none" xmlns="http://www.w3.org/2000/svg">
<path d="M2.1669 36.4462C0.969614 36.4462 -0.000976562 35.487 -0.000976562 34.3038V2.16846C-0.000976562 0.985272 0.969614 0.0260542 2.1669 0.0260542H15.9979C18.1471 0.0256312 19.5099 0.0261067 19.5099 0.0261067H30.3493C31.5465 0.0261067 32.5171 0.985272 32.5171 2.16846L28.1814 10.7379L32.5171 19.3073C32.5171 20.4905 31.5465 21.4497 30.3493 21.4497H18.6644H15.1741H4.33477V34.3038C4.33477 35.487 3.36418 36.4462 2.1669 36.4462ZM4.33477 4.31082V17.165L17.342 17.165L19.5099 17.165H27.0974L23.8456 10.7379L27.0974 4.31072L15.1741 4.31082H4.33477Z" fill="#00B5C7"/>
</svg>
