<svg width="24" height="27" viewBox="0 0 24 27" fill="none" xmlns="http://www.w3.org/2000/svg">
<path d="M4.46899 6.9187C4.46899 3.09788 7.80445 0.000488281 11.9189 0.000488281C16.0334 0.000488281 19.3689 3.09788 19.3689 6.9187C19.3689 10.7395 16.0334 13.8369 11.9189 13.8369C7.80445 13.8369 4.46899 10.7395 4.46899 6.9187ZM11.9189 11.0696C14.3876 11.0696 16.3889 9.21119 16.3889 6.9187C16.3889 4.62621 14.3876 2.76777 11.9189 2.76777C9.45025 2.76777 7.44898 4.62621 7.44898 6.9187C7.44898 9.21119 9.45025 11.0696 11.9189 11.0696Z" fill="white"/>
<path d="M3.49029 18.4626C1.25487 20.5385 -0.000976562 23.354 -0.000976562 26.2897H2.979C2.979 24.0879 3.92089 21.9763 5.59745 20.4194C7.27402 18.8625 9.54793 17.9878 11.9189 17.9878C14.29 17.9878 16.5639 18.8625 18.2404 20.4194C19.917 21.9763 20.8589 24.0879 20.8589 26.2897H23.8389C23.8389 23.354 22.583 20.5385 20.3476 18.4626C18.1122 16.3868 15.0803 15.2206 11.9189 15.2206C8.75759 15.2206 5.72571 16.3868 3.49029 18.4626Z" fill="white"/>
</svg>
