<svg width="32" height="33" viewBox="0 0 32 33" fill="none" xmlns="http://www.w3.org/2000/svg">
<path opacity="0.9" d="M16 32.1128C7.16344 32.1128 0 24.9494 0 16.1128C0 7.27624 7.16344 0.112793 16 0.112793C24.8366 0.112793 32 7.27624 32 16.1128C31.9899 24.9452 24.8324 32.1027 16 32.1128ZM16 4.68422C9.68817 4.68422 4.57143 9.80097 4.57143 16.1128C4.57143 22.4246 9.68817 27.5414 16 27.5414C22.3118 27.5414 27.4286 22.4246 27.4286 16.1128C27.4286 9.80097 22.3118 4.68422 16 4.68422ZM16 22.9699C12.2129 22.9699 9.14286 19.8999 9.14286 16.1128C9.14286 12.3257 12.2129 9.25565 16 9.25565C19.7871 9.25565 22.8571 12.3257 22.8571 16.1128C22.8571 17.9314 22.1347 19.6756 20.8487 20.9615C19.5628 22.2475 17.8186 22.9699 16 22.9699Z" fill="#2E3A59"/>
</svg>
