<svg width="33" height="33" viewBox="0 0 33 33" fill="none" xmlns="http://www.w3.org/2000/svg">
<path d="M16.1379 32.3887C7.2252 32.3887 0 25.1635 0 16.2507C0 7.33799 7.2252 0.112793 16.1379 0.112793C25.0507 0.112793 32.2759 7.33799 32.2759 16.2507C32.2661 25.1594 25.0466 32.3789 16.1379 32.3887ZM3.22759 16.5283C3.30394 23.631 9.10358 29.3378 16.2066 29.2999C23.3096 29.2615 29.0475 23.4926 29.0475 16.3895C29.0475 9.28641 23.3096 3.51753 16.2066 3.47916C9.10358 3.44117 3.30394 9.14803 3.22759 16.2507V16.5283ZM19.3655 24.3197H14.5241V17.8645H12.9103V14.6369H17.7517V21.0921H19.3655V24.3197ZM17.7517 11.4093H14.5241V8.18176H17.7517V11.4093Z" fill="#2E3A59"/>
</svg>
