<svg width="30" height="30" viewBox="0 0 30 30" fill="none" xmlns="http://www.w3.org/2000/svg">
<path d="M14.8151 29.751C6.81247 29.751 0.325073 23.2636 0.325073 15.261C0.325073 7.25839 6.81247 0.770996 14.8151 0.770996C22.8177 0.770996 29.3051 7.25839 29.3051 15.261C29.2963 23.26 22.814 29.7422 14.8151 29.751ZM14.7919 26.853H14.8151C21.2149 26.8466 26.3987 21.655 26.3955 15.2552C26.3923 8.85538 21.2033 3.669 14.8035 3.669C8.40366 3.669 3.21468 8.85538 3.21148 15.2552C3.20828 21.655 8.39207 26.8466 14.7919 26.853ZM11.9171 22.506L6.12107 16.71L8.16416 14.6669L11.9171 18.4053L21.466 8.85642L23.5091 10.914L11.9171 22.506Z" fill="#F53D7A"/>
</svg>
