<svg width="25" height="28" viewBox="0 0 25 28" fill="none" xmlns="http://www.w3.org/2000/svg">
<path fill-rule="evenodd" clip-rule="evenodd" d="M14.0447 1.29141L15.1769 3.61156L23.1501 3.66659C24.0271 3.67264 24.7398 4.39518 24.7337 5.27223L24.6456 18.0293C24.6396 18.9064 23.9171 19.619 23.04 19.613L14.4449 19.5536C13.8549 19.5496 13.2991 19.2108 13.0317 18.6668L11.8996 16.3466L3.92637 16.2916L3.86032 25.8594C3.85427 26.7365 3.13173 27.4491 2.25468 27.4431C1.37763 27.437 0.664994 26.7145 0.671048 25.8374L0.836161 1.91788C0.842215 1.04083 1.56475 0.328194 2.44181 0.334247L12.6156 0.404459C13.2216 0.408641 13.7774 0.747367 14.0447 1.29141ZM15.0888 16.3687L21.4674 16.4127L21.5334 6.84486L13.5602 6.78983L11.9876 3.58955L4.01443 3.53453L3.94838 13.1024L13.5162 13.1684L15.0888 16.3687Z" fill="#F53D7A"/>
</svg>
