<svg width="28" height="26" viewBox="0 0 28 26" fill="none" xmlns="http://www.w3.org/2000/svg">
<path fill-rule="evenodd" clip-rule="evenodd" d="M14.0521 3.73438C13.5863 3.20952 13.0449 2.75271 12.449 2.37327C11.1321 1.53475 9.54894 1.0741 7.92608 1.09194C3.75353 1.1378 0.510444 4.38973 0.555429 8.48269C0.571414 9.937 0.933053 11.3142 1.54098 12.6215C3.42657 16.68 7.68187 20.0756 11.3447 22.9985C12.3993 23.84 13.4047 24.6423 14.2904 25.41C15.1589 24.623 16.1465 23.7988 17.1823 22.9344C20.7799 19.9317 24.9595 16.4435 26.7555 12.3446C27.3346 11.0242 27.6659 9.63929 27.6499 8.1849C27.6049 4.09194 24.2911 0.912071 20.1186 0.95793C18.4957 0.975767 16.9231 1.47111 15.625 2.33836C15.0375 2.73081 14.5063 3.19941 14.0521 3.73438ZM14.2512 21.8469C14.6845 21.4797 15.1275 21.1094 15.5698 20.7396C15.9444 20.4263 16.3186 20.1135 16.6859 19.8033C18.1565 18.5617 19.5955 17.3009 20.8676 15.9822C22.4417 14.3503 23.6078 12.7834 24.2798 11.2421C24.7231 10.2245 24.9515 9.21885 24.9405 8.21468C24.9125 5.66706 22.874 3.63742 20.1484 3.66738C18.5384 3.68507 17.0436 4.39755 16.1177 5.48809L14.0975 7.86743L12.0256 5.53307C11.076 4.46314 9.56586 3.78369 7.95586 3.80138C5.23027 3.83134 3.23688 5.90529 3.26488 8.45291C3.27591 9.45708 3.52637 10.4575 3.99187 11.4651C4.69768 12.9913 5.89788 14.5321 7.50752 16.1291C8.80823 17.4195 10.2746 18.6484 11.7721 19.8573C12.1462 20.1593 12.5272 20.4639 12.9086 20.7688C13.3589 21.1288 13.8099 21.4893 14.2512 21.8469Z" fill="#F53D7A"/>
</svg>
