<svg width="32" height="33" viewBox="0 0 32 33" fill="none" xmlns="http://www.w3.org/2000/svg">
<path d="M3.776 16.3148L3.78078 16.3374C4.46039 19.564 6.63491 22.3341 9.71241 23.733L16 26.591V23.2239H19.5556C24.4648 23.2239 28.4444 19.2442 28.4444 14.335V12.5572C28.4444 7.64804 24.4648 3.66835 19.5556 3.66835H12.4444C7.53525 3.66835 3.55556 7.64804 3.55556 12.5572V14.335C3.55556 15.0112 3.63043 15.6657 3.77093 16.2922L3.776 16.3148ZM19.5556 32.1128L8.24111 26.9699C4.12065 25.0969 1.21115 21.3886 0.301562 17.0703C0.104159 16.1901 0 15.2747 0 14.335V12.5572C0 5.68436 5.57157 0.112793 12.4444 0.112793H19.5556C26.4284 0.112793 32 5.68436 32 12.5572V14.335C32 21.2079 26.4284 26.7795 19.5556 26.7795V32.1128Z" fill="#2E3A59"/>
</svg>
