<svg width="278" height="99" viewBox="0 0 278 99" fill="none" xmlns="http://www.w3.org/2000/svg">
<path d="M6.48451 98.4999L12.4122 88.2397L0.562798 88.2363L6.48451 98.4999ZM6.49382 66.2774L7.52003 66.2777L6.49382 66.2774ZM275.447 0.418641L275.439 25.1727L277.492 25.1732L277.499 0.419233L275.447 0.418641ZM255.948 44.6646L27.0111 44.7334L27.0117 46.7858L255.948 46.717L255.948 44.6646ZM5.46764 66.2771L5.461 89.2639L7.51337 89.2645L7.52003 66.2777L5.46764 66.2771ZM27.0111 44.7334C15.1144 44.737 5.47109 54.3804 5.46764 66.2771L7.52003 66.2777C7.52312 55.514 16.248 46.789 27.0117 46.7858L27.0111 44.7334ZM275.439 25.1727C275.436 35.9364 266.711 44.6614 255.948 44.6646L255.948 46.717C267.845 46.7134 277.488 37.07 277.492 25.1732L275.439 25.1727Z" fill="#00B5C7"/>
</svg>
