<svg width="18" height="19" viewBox="0 0 18 19" fill="none" xmlns="http://www.w3.org/2000/svg">
<path d="M17.5486 2.95154C17.524 2.43358 17.3067 1.94338 16.9392 1.57671C16.5718 1.21004 16.0805 0.993229 15.5614 0.968631C14.8369 0.937648 14.1435 0.916992 13.4707 0.916992C8.26467 0.916992 4.65252 1.91878 2.64462 3.92235C-1.16418 7.72293 -0.615627 13.114 2.73777 16.2123H2.74812C4.1528 12.2933 6.98781 9.04768 10.6866 7.12393C10.4692 7.30983 5.82207 10.8212 4.98372 17.7098C6.07047 18.2055 7.26072 18.4844 8.46132 18.4844C10.5831 18.4844 12.7669 17.6582 14.5885 15.8508C16.8552 13.5787 17.8384 9.28241 17.5486 2.95154Z" fill="#00B5C7"/>
</svg>
