<svg width="28" height="25" viewBox="0 0 28 25" fill="none" xmlns="http://www.w3.org/2000/svg">
<path fill-rule="evenodd" clip-rule="evenodd" d="M13.577 2.8584C13.1112 2.33354 12.5698 1.87673 11.9739 1.49729C10.657 0.658777 9.07384 0.198123 7.45098 0.215959C3.27843 0.261819 0.0353458 3.51375 0.0803314 7.60672C0.0963157 9.06103 0.457955 10.4382 1.06588 11.7456C2.95147 15.8041 7.20677 19.1997 10.8696 22.1225C11.9242 22.964 12.9296 23.7663 13.8153 24.534C14.6838 23.747 15.6714 22.9228 16.7072 22.0584C20.3048 19.0558 24.4844 15.5675 26.2804 11.4687C26.8595 10.1482 27.1908 8.76332 27.1748 7.30893C27.1298 3.21596 23.816 0.0360936 19.6435 0.0819534C18.0206 0.0997899 16.448 0.595129 15.1499 1.46238C14.5624 1.85483 14.0312 2.32343 13.577 2.8584ZM13.7761 20.971C14.2094 20.6038 14.6524 20.2334 15.0947 19.8636C15.4693 19.5503 15.8435 19.2375 16.2108 18.9273C17.6814 17.6858 19.1204 16.425 20.3925 15.1062C21.9666 13.4743 23.1327 11.9074 23.8048 10.3661C24.248 9.3485 24.4764 8.34287 24.4654 7.33871C24.4374 4.79108 22.3989 2.76144 19.6733 2.7914C18.0633 2.8091 16.5685 3.52157 15.6426 4.61212L13.6224 6.99145L11.5505 4.65709C10.6009 3.58716 9.09076 2.90771 7.48076 2.92541C4.75517 2.95536 2.76178 5.02931 2.78978 7.57694C2.80082 8.5811 3.05127 9.58148 3.51677 10.5891C4.22258 12.1153 5.42279 13.6562 7.03243 15.2531C8.33313 16.5435 9.7995 17.7724 11.297 18.9813C11.6711 19.2834 12.0521 19.5879 12.4335 19.8928C12.8838 20.2528 13.3348 20.6134 13.7761 20.971Z" fill="#F53D7A"/>
</svg>
