<svg width="25" height="28" viewBox="0 0 25 28" fill="none" xmlns="http://www.w3.org/2000/svg">
<path fill-rule="evenodd" clip-rule="evenodd" d="M13.3846 0.968172L14.5167 3.28832L22.4899 3.34334C23.367 3.3494 24.0796 4.07194 24.0735 4.94899L23.9855 17.7061C23.9794 18.5831 23.2569 19.2958 22.3798 19.2897L13.7847 19.2304C13.1947 19.2263 12.6389 18.8876 12.3716 18.3436L11.2394 16.0234L3.26621 15.9684L3.20017 25.5362C3.19411 26.4133 2.47157 27.1259 1.59452 27.1198C0.717472 27.1138 0.00483824 26.3912 0.0108923 25.5142L0.176004 1.59464C0.182058 0.717587 0.904598 0.00495226 1.78165 0.011005L11.9554 0.081217C12.5614 0.085399 13.1172 0.424125 13.3846 0.968172ZM14.4287 16.0454L20.8072 16.0894L20.8733 6.52161L12.9001 6.46659L11.3275 3.26631L3.35427 3.21128L3.28823 12.7791L12.8561 12.8451L14.4287 16.0454Z" fill="#F53D7A"/>
</svg>
