<svg width="21" height="21" viewBox="0 0 21 21" fill="none" xmlns="http://www.w3.org/2000/svg">
<path d="M10.5 21C4.70365 20.9936 0.00636548 16.2964 0 10.5V10.29C0.115428 4.51977 4.86631 -0.0756269 10.6372 0.000943127C16.4081 0.0775132 21.0354 4.79735 20.9977 10.5686C20.9599 16.3399 16.2714 20.9988 10.5 21ZM10.4832 18.9H10.5C15.1375 18.8954 18.8939 15.1334 18.8916 10.4958C18.8893 5.85827 15.1291 2.10002 10.4916 2.10002C5.85404 2.10002 2.09392 5.85827 2.0916 10.4958C2.08928 15.1334 5.84565 18.8954 10.4832 18.9ZM11.55 16.8H9.44999V14.7H11.55V16.8ZM11.55 13.65H9.44999C9.41681 12.2826 10.1284 11.0048 11.3085 10.3131C12.0015 9.78181 12.6 9.32401 12.6 8.40001C12.6 7.24021 11.6598 6.30001 10.5 6.30001C9.34019 6.30001 8.39999 7.24021 8.39999 8.40001H6.29999V8.30551C6.31688 6.805 7.13299 5.42747 8.44091 4.69183C9.74884 3.9562 11.3499 3.97421 12.6409 4.73908C13.932 5.50396 14.7169 6.8995 14.7 8.40001C14.6248 9.53298 14.0171 10.5633 13.062 11.1773C12.1986 11.7193 11.639 12.6345 11.55 13.65Z" fill="white"/>
</svg>
