<svg width="32" height="32" viewBox="0 0 32 32" fill="none" xmlns="http://www.w3.org/2000/svg">
<path d="M15.648 31.2959C7.00976 31.2865 0.00948637 24.2862 0 15.648V15.335C0.17202 6.73574 7.25218 -0.112706 15.8524 0.00140553C24.4527 0.115517 31.3487 7.1494 31.2925 15.7502C31.2363 24.3511 24.249 31.2942 15.648 31.2959ZM15.6229 28.1664H15.648C22.5592 28.1594 28.1573 22.553 28.1538 15.6417C28.1504 8.73048 22.5467 3.12963 15.6354 3.12963C8.72418 3.12963 3.12053 8.73048 3.11707 15.6417C3.11362 22.553 8.71167 28.1594 15.6229 28.1664ZM17.2128 25.0368H14.0832V21.9072H17.2128V25.0368ZM17.2128 20.3424H14.0832C14.0337 18.3045 15.0942 16.4003 16.8529 15.3695C17.8856 14.5777 18.7776 13.8954 18.7776 12.5184C18.7776 10.79 17.3764 9.3888 15.648 9.3888C13.9195 9.3888 12.5184 10.79 12.5184 12.5184H9.38878V12.3776C9.41393 10.1414 10.6302 8.08847 12.5794 6.99216C14.5285 5.89585 16.9145 5.92269 18.8385 7.06258C20.7626 8.20246 21.9323 10.2822 21.9071 12.5184C21.7951 14.2068 20.8895 15.7423 19.4661 16.6573C18.1793 17.465 17.3454 18.8289 17.2128 20.3424Z" fill="white"/>
</svg>
