<svg width="84" height="128" viewBox="0 0 84 128" fill="none" xmlns="http://www.w3.org/2000/svg">
<path d="M2 35.5055L0.973814 35.4992V35.5055H2ZM83.5 121.508L73.2381 115.583V127.433L83.5 121.508ZM2.125 15.0069L3.15117 15.0132L3.15122 15.0055L3.15115 14.9978L2.125 15.0069ZM0.973814 35.5055V100.984H3.02619V35.5055H0.973814ZM22.5237 122.534H74.2643V120.482H22.5237V122.534ZM1.09884 15.0007L0.973833 35.4992L3.02617 35.5117L3.15117 15.0132L1.09884 15.0007ZM0.973854 1.00916L1.09886 15.0161L3.15115 14.9978L3.02615 0.990842L0.973854 1.00916ZM0.973814 100.984C0.973814 112.886 10.622 122.534 22.5237 122.534V120.482C11.7555 120.482 3.02619 111.753 3.02619 100.984H0.973814Z" fill="#00B5C7"/>
</svg>
