<svg width="32" height="29" viewBox="0 0 32 29" fill="none" xmlns="http://www.w3.org/2000/svg">
<path d="M11.2 0.112793C6.78172 0.112793 3.2 3.69451 3.2 8.11279C3.2 12.5311 6.78172 16.1128 11.2 16.1128C15.6183 16.1128 19.2 12.5311 19.2 8.11279C19.2 3.69451 15.6183 0.112793 11.2 0.112793ZM6.4 8.11279C6.4 5.46183 8.54903 3.31279 11.2 3.31279C13.851 3.31279 16 5.46183 16 8.11279C16 10.7638 13.851 12.9128 11.2 12.9128C8.54903 12.9128 6.4 10.7638 6.4 8.11279Z" fill="#2E3A59"/>
<path d="M23.8535 8.46204C23.4033 8.23254 22.9053 8.11289 22.4 8.11289V4.91289C23.4106 4.91289 24.4067 5.15209 25.307 5.61111C25.4062 5.66167 25.5039 5.71473 25.6 5.77023C26.3766 6.21861 27.0515 6.82589 27.5797 7.55368C28.1732 8.37155 28.5647 9.31835 28.722 10.3166C28.8793 11.3148 28.798 12.3361 28.4847 13.2969C28.1714 14.2576 27.6351 15.1306 26.9196 15.8442C26.204 16.5578 25.3297 17.0919 24.3681 17.4027C23.5125 17.6792 22.6093 17.7719 21.7177 17.6763C21.6073 17.6645 21.4971 17.6498 21.3872 17.6322C20.3901 17.4723 19.4449 17.0788 18.629 16.4838L18.6273 16.4826L20.5137 13.8977C20.9218 14.1955 21.3947 14.3924 21.8936 14.4724C22.3925 14.5523 22.9033 14.513 23.384 14.3576C23.8648 14.2023 24.302 13.9352 24.6597 13.5784C25.0175 13.2216 25.2856 12.7852 25.4423 12.3048C25.5989 11.8244 25.6395 11.3138 25.5609 10.8147C25.4823 10.3156 25.2865 9.84221 24.9898 9.43329C24.693 9.02437 24.3036 8.69154 23.8535 8.46204Z" fill="#2E3A59"/>
<path d="M28.797 28.9128C28.797 28.0727 28.6315 27.2409 28.31 26.4648C27.9885 25.6887 27.5174 24.9835 26.9233 24.3895C26.3293 23.7954 25.6241 23.3242 24.848 23.0028C24.0719 22.6813 23.2401 22.5158 22.4 22.5158V19.3128C23.4913 19.3128 24.5734 19.4989 25.6 19.8618C25.7593 19.9181 25.9173 19.9787 26.0738 20.0435C27.2385 20.526 28.2968 21.2331 29.1882 22.1246C30.0797 23.016 30.7868 24.0743 31.2692 25.239C31.3341 25.3955 31.3946 25.5535 31.451 25.7128C31.8139 26.7394 32 27.8215 32 28.9128H28.797Z" fill="#2E3A59"/>
<path d="M22.4 28.9128H19.2C19.2 24.4945 15.6183 20.9128 11.2 20.9128C6.78172 20.9128 3.2 24.4945 3.2 28.9128H0C0 22.7272 5.01441 17.7128 11.2 17.7128C17.3856 17.7128 22.4 22.7272 22.4 28.9128Z" fill="#2E3A59"/>
</svg>
