<svg width="15" height="15" viewBox="0 0 15 15" fill="none" xmlns="http://www.w3.org/2000/svg">
<path d="M6.29739 1.08072C6.39449 0.880625 6.54476 0.712136 6.7312 0.594319C6.91764 0.476503 7.1328 0.414063 7.35234 0.414063C7.57189 0.414062 7.78705 0.476503 7.97349 0.594319C8.15993 0.712136 8.31019 0.880625 8.4073 1.08072L10.0423 4.44861L13.6975 4.98651C13.9148 5.01858 14.1189 5.11181 14.2868 5.25565C14.4546 5.3995 14.5795 5.58822 14.6473 5.80046C14.7151 6.01269 14.723 6.23997 14.6703 6.45657C14.6175 6.67317 14.5062 6.87044 14.3488 7.02607L11.7037 9.64536L12.3286 13.345C12.3655 13.5646 12.3412 13.7903 12.2585 13.9967C12.1758 14.203 12.038 14.3818 11.8606 14.5128C11.6832 14.6438 11.4734 14.7218 11.2547 14.738C11.036 14.7542 10.8173 14.708 10.6231 14.6045L7.35161 12.8579L4.08162 14.6045C3.88743 14.708 3.66865 14.7542 3.44998 14.738C3.23131 14.7218 3.02145 14.6438 2.84409 14.5128C2.66672 14.3818 2.52892 14.203 2.44621 13.9967C2.36351 13.7903 2.33921 13.5646 2.37605 13.345L2.99947 9.64536L0.354368 7.02457C0.197421 6.86879 0.0864739 6.67151 0.034061 6.45502C-0.0183519 6.23852 -0.0101412 6.01145 0.0577653 5.79945C0.125672 5.58745 0.250568 5.39898 0.418341 5.25532C0.586115 5.11167 0.790079 5.01856 1.00719 4.98651L4.6624 4.44711L6.29592 1.08072H6.29739Z" fill="#F53D7A"/>
</svg>
