<svg width="165" height="22" viewBox="0 0 165 22" fill="none" xmlns="http://www.w3.org/2000/svg">
<path d="M7.46418 22.0004C2.85188 22.0004 0.0704168 19.6173 0 16.0254H5.59813C5.59813 17.2342 6.44313 17.7868 7.5698 17.7868C8.4148 17.7868 9.2246 17.3724 9.2246 16.5089C9.2246 15.5419 7.95709 15.2656 6.3023 15.0238C3.69688 14.5748 0.246459 13.815 0.246459 9.77415C0.246459 6.45857 3.13355 4.28271 7.46418 4.28271C11.7596 4.28271 14.5763 6.52764 14.6467 9.9123H9.15418C9.15418 8.84164 8.4148 8.35812 7.35855 8.35812C6.40793 8.35812 5.80938 8.80711 5.80938 9.56693C5.80938 10.4994 7.11209 10.7412 8.69647 11.0175C11.3723 11.4665 14.9284 12.0191 14.9284 16.2326C14.9636 19.7209 11.9709 22.0004 7.46418 22.0004Z" fill="white"/>
<path d="M28.9408 16.4398V21.4477H24.9271C21.195 21.4477 18.9064 19.2028 18.9064 15.5073V9.256H15.8081V7.90905L23.3779 0H24.575V4.86976H28.8352V9.29054H24.751V14.5748C24.751 15.749 25.4904 16.4743 26.7227 16.4743H28.9408V16.4398Z" fill="white"/>
<path d="M42.6738 4.7666V10.0163H40.4205C38.3432 10.0163 37.4982 10.9142 37.4982 13.021V21.4481H31.6536V4.87021H35.5617L36.4771 6.70069C37.6742 5.35374 39.1177 4.7666 41.1246 4.7666H42.6738Z" fill="white"/>
<path d="M62.037 12.9861C62.037 13.4696 62.0018 13.9877 61.9314 14.5058H49.362C49.7493 16.4053 50.9816 17.4069 52.8124 17.4069C54.1856 17.4069 55.3122 16.8198 55.8756 15.8527H61.685C60.4879 19.6518 57.0727 22.0004 52.8124 22.0004C47.5312 22.0004 43.623 18.2013 43.623 13.1243C43.623 8.04728 47.496 4.28271 52.8124 4.28271C58.2697 4.31725 62.037 8.11636 62.037 12.9861ZM49.4676 11.3629H56.2981C55.7699 9.70508 54.5729 8.80711 52.8124 8.80711C51.1224 8.80711 49.9254 9.70508 49.4676 11.3629Z" fill="white"/>
<path d="M82.142 12.9861C82.142 13.4696 82.1068 13.9877 82.0364 14.5058H69.467C69.8543 16.4053 71.0866 17.4069 72.9174 17.4069C74.2905 17.4069 75.4172 16.8198 75.9805 15.8527H81.7899C80.5928 19.6518 77.1776 22.0004 72.9174 22.0004C67.6362 22.0004 63.728 18.2013 63.728 13.1243C63.728 8.04728 67.601 4.28271 72.9174 4.28271C78.3747 4.31725 82.142 8.11636 82.142 12.9861ZM69.5726 11.3629H76.403C75.8749 9.70508 74.6778 8.80711 72.9174 8.80711C71.2274 8.80711 70.0303 9.70508 69.5726 11.3629Z" fill="white"/>
<path d="M92.7029 9.29033C91.7171 15.4725 91.6818 15.6452 91.6818 15.9906C91.6818 16.7504 91.9987 17.2685 93.0198 17.2685C93.9 17.2685 94.9914 16.8885 95.6956 16.5086L95.9421 20.3077C94.7098 21.033 92.8789 21.6202 90.9425 21.6202C86.7175 21.6202 85.9429 19.1335 85.9429 17.1994C85.9429 16.1978 86.1189 15.1617 87.0696 9.29033H85.2739L85.9781 5.21492H88.5131L90.4848 1.17406L94.0056 1.10498C93.7591 2.62462 93.5479 3.97158 93.3366 5.18039H98.0898L96.5758 9.25579H92.7029V9.29033Z" fill="white"/>
<path d="M98.2661 14.6085C98.2661 9.08256 102.421 4.83447 108.16 4.83447C112.49 4.83447 115.413 7.21755 115.413 11.7765C115.413 17.3025 111.223 21.6196 105.484 21.6196C101.224 21.6196 98.2661 19.2711 98.2661 14.6085ZM109.462 11.5002C109.462 9.3934 108.793 8.70265 107.808 8.70265C105.73 8.70265 104.146 11.811 104.146 15.0575C104.146 17.1298 104.815 17.786 105.801 17.786C107.878 17.786 109.462 14.6776 109.462 11.5002Z" fill="white"/>
<path d="M134.145 17.5794L132.244 21.3439C131.786 21.5512 131.187 21.5857 130.624 21.5857C128.371 21.4475 127.526 20.1351 127.385 18.4428C125.695 20.5841 123.617 21.6202 121.575 21.6202C119.357 21.6202 117.808 20.3769 117.808 17.7521C117.808 16.8541 117.984 15.9561 119.815 5.18046L125.484 4.86963C123.758 15.1963 123.688 15.6107 123.688 16.0943C123.688 16.8886 124.005 17.3031 124.603 17.3031C125.871 17.3031 127.244 15.6107 128.195 10.2229L129.004 5.215H134.638C133.194 14.4365 132.983 15.2308 132.983 15.887C133.018 16.6469 133.265 17.234 134.145 17.5794Z" fill="white"/>
<path d="M150.798 5.18046L149.284 10.3956C148.897 10.2229 148.263 10.0848 147.629 10.0848C145.904 10.0848 144.32 11.2936 143.263 16.785L142.524 21.3094H136.891C138.51 11.3972 138.616 10.7755 138.616 10.3611C138.616 9.63578 138.369 9.08318 137.524 8.77235L139.707 4.86963C142.137 4.90417 143.897 5.69853 144.32 7.49447C144.39 7.83984 144.355 7.90891 144.39 8.46151V8.53059C145.059 6.25112 146.925 4.86963 149.108 4.86963C149.742 4.86963 150.27 5.00778 150.798 5.18046Z" fill="white"/>
<path d="M149.987 20.4114L151.466 16.4051C153.262 17.4412 155.022 18.0974 156.114 18.0974C157.135 18.0974 157.733 17.6139 157.733 16.8886C157.733 15.6798 155.973 15.0581 154.564 14.2638C152.945 13.3313 151.959 12.0534 151.959 10.292C151.959 7.18363 154.811 4.86963 158.93 4.86963C160.726 4.86963 162.944 5.31861 164.423 5.87121L162.979 9.84301C161.747 8.9105 160.127 8.39244 159.247 8.39244C158.402 8.39244 157.628 8.80688 157.628 9.60124C157.628 10.4301 158.367 10.8791 159.951 11.7426C161.993 12.8478 163.261 14.022 163.261 16.1288C163.261 19.4789 160.092 21.6548 155.867 21.6548C154.036 21.6202 151.713 21.2058 149.987 20.4114Z" fill="white"/>
</svg>
