<svg width="15" height="15" viewBox="0 0 15 15" fill="none" xmlns="http://www.w3.org/2000/svg">
<path d="M7.18 14.6675C3.2146 14.6675 0 11.4603 0 7.50406C0 3.54778 3.2146 0.340576 7.18 0.340576C11.1454 0.340576 14.36 3.54778 14.36 7.50406C14.3556 11.4585 11.1436 14.6632 7.18 14.6675ZM7.18 1.77327C4.00768 1.77327 1.436 4.33903 1.436 7.50406C1.436 10.6691 4.00768 13.2348 7.18 13.2348C10.3523 13.2348 12.924 10.6691 12.924 7.50406C12.9204 4.34051 10.3508 1.77683 7.18 1.77327ZM10.77 8.22041H6.462V3.92232H7.898V6.78771H10.77V8.22041Z" fill="#2D3E50"/>
</svg>
