<svg width="20" height="21" viewBox="0 0 20 21" fill="none" xmlns="http://www.w3.org/2000/svg">
<path d="M4.27253 5.52632C4.27253 2.47422 6.9369 0 10.2236 0C13.5102 0 16.1746 2.47422 16.1746 5.52632C16.1746 8.57841 13.5102 11.0526 10.2236 11.0526C6.9369 11.0526 4.27253 8.57841 4.27253 5.52632ZM10.2236 8.8421C12.1956 8.8421 13.7942 7.35758 13.7942 5.52632C13.7942 3.69506 12.1956 2.21053 10.2236 2.21053C8.25157 2.21053 6.65295 3.69506 6.65295 5.52632C6.65295 7.35758 8.25157 8.8421 10.2236 8.8421Z" fill="white"/>
<path d="M3.49074 14.7477C1.70508 16.4059 0.701904 18.6549 0.701904 21H3.08232C3.08232 19.2412 3.8347 17.5544 5.17395 16.3108C6.51319 15.0671 8.32959 14.3684 10.2236 14.3684C12.1175 14.3684 13.934 15.0671 15.2732 16.3108C16.6124 17.5544 17.3648 19.2412 17.3648 21H19.7452C19.7452 18.6549 18.7421 16.4059 16.9564 14.7477C15.1707 13.0895 12.7489 12.1579 10.2236 12.1579C7.69827 12.1579 5.2764 13.0895 3.49074 14.7477Z" fill="white"/>
</svg>
