<svg width="25" height="25" viewBox="0 0 25 25" fill="none" xmlns="http://www.w3.org/2000/svg">
<path d="M22.8698 25L14.2663 16.3955C10.4391 19.1163 5.1652 18.4508 2.13394 14.8645C-0.897326 11.2782 -0.674749 5.96746 2.64597 2.64732C5.96582 -0.674273 11.2774 -0.8978 14.8646 2.13312C18.4518 5.16405 19.1177 10.4381 16.3965 14.2655L25 22.87L22.8713 24.9985L22.8698 25ZM9.03198 3.01159C6.17725 3.01095 3.71436 5.01472 3.13445 7.80976C2.55453 10.6048 4.01698 13.4229 6.63636 14.5579C9.25575 15.6928 12.3121 14.8327 13.9551 12.4983C15.598 10.1639 15.3759 6.9967 13.4233 4.91435L14.3341 5.81755L13.3074 4.79393L13.2893 4.77586C12.1629 3.64261 10.6298 3.00729 9.03198 3.01159Z" fill="white"/>
</svg>
