<svg class="icon icon-logo " xmlns="http://www.w3.org/2000/svg" width="155.42" height="104.44" viewBox="0 0 155.42 104.44">
  <path class="svg-ticket-bg" d="M148.69,58.72a4.14,4.14,0,0,1,0-8.29h.12v-7.5h-.12a4.14,4.14,0,0,1,0-8.29h.12v-7.5h-.12a4.14,4.14,0,0,1,0-8.29h.12V9.4h-.12A9.15,9.15,0,0,1,139.55.26c0-.09,0-.17,0-.26H15.93c0,.09,0,.17,0,.26A9.15,9.15,0,0,1,6.79,9.41l-.38,0v9.55c.13,0,.25,0,.38,0a4.14,4.14,0,1,1,0,8.29c-.13,0-.25,0-.38,0v7.56c.13,0,.25,0,.38,0a4.14,4.14,0,1,1,0,8.29c-.13,0-.25,0-.38,0v7.56c.13,0,.25,0,.38,0a4.14,4.14,0,1,1,0,8.29c-.13,0-.25,0-.38,0V68l.38,0a9.15,9.15,0,0,1,9.15,9.15s0,.06,0,.09H139.55s0-.06,0-.09a9.15,9.15,0,0,1,9.15-9.15h.12V58.71Z"></path>

  <path class="svg-ticket-stroke" d="M148.69,18.9h.12V9.4h-.12A9.15,9.15,0,0,1,139.55.26c0-.09,0-.17,0-.26H15.93c0,.09,0,.17,0,.26A9.15,9.15,0,0,1,6.79,9.41l-.38,0v9.55c.13,0,.25,0,.38,0a4.14,4.14,0,1,1,0,8.29c-.13,0-.25,0-.38,0v7.56c.13,0,.25,0,.38,0a4.14,4.14,0,1,1,0,8.29c-.13,0-.25,0-.38,0v7.56c.13,0,.25,0,.38,0a4.14,4.14,0,0,1,0,8.29c-.13,0-.25,0-.38,0v9.26l.38,0a9.15,9.15,0,0,1,9.15,9.15s0,.06,0,.09H139.55s0-.06,0-.09a9.15,9.15,0,0,1,9.15-9.15h.12V58.71h-.12a4.14,4.14,0,0,1,0-8.29h.12v-7.5h-.12a4.14,4.14,0,0,1,0-8.29h.12v-7.5h-.12a4.14,4.14,0,0,1,0-8.29Zm-2.48,10.41v3.23a6.74,6.74,0,0,0,0,12.54v3.23a6.74,6.74,0,0,0,0,12.54v4.74a11.79,11.79,0,0,0-9,9H18.27a11.79,11.79,0,0,0-9.26-9V60.95A6.74,6.74,0,0,0,9,48.21v-3A6.74,6.74,0,0,0,9,32.45v-3A6.74,6.74,0,0,0,9,16.68V11.8a11.79,11.79,0,0,0,9.29-9.2H137.18a11.79,11.79,0,0,0,9,9.15v5a6.74,6.74,0,0,0,0,12.54Z"></path>

  <g class="svg-ticket-detail">
    <path d="M131.57,8.49h-31v2.6h31a2.38,2.38,0,0,1,2.19,2.52V64.26a2.38,2.38,0,0,1-2.19,2.52H96.79V55.15l4.15-3.89V44.42h-6.6V21h5.32a1.3,1.3,0,0,0,.51-2.49l-22-13a1.3,1.3,0,0,0-1.32,0L54.81,18.62A1.3,1.3,0,0,0,55.47,21h5.3V44.42h-6.6v6.84l4.09,3.83V66.78H23.75a2.38,2.38,0,0,1-2.19-2.52V13.62a2.38,2.38,0,0,1,2.19-2.52H54.31V8.49H23.75A5,5,0,0,0,19,13.62V64.26a5,5,0,0,0,4.79,5.12H131.57a5,5,0,0,0,4.79-5.12V13.62A5,5,0,0,0,131.57,8.49ZM94.19,66.78H83.77l10.42-4.35ZM91.75,44.42H78.9v-4a7.89,7.89,0,0,0,0-15.55V21H91.75Zm-14.19-17a5.3,5.3,0,1,1-5.3,5.3A5.3,5.3,0,0,1,77.56,27.38ZM60.23,18.44,77.56,8.2,94.89,18.44h-.54v0H60.77v0ZM63.37,21H76.3v3.85a7.89,7.89,0,0,0,0,15.57v4H63.37Zm35,26v3.12L95,53.26H60.11l-3.33-3.12V47m4.09,8.84H80.31L60.86,63.34ZM77.27,66.78H60.86v-.68a1.23,1.23,0,0,0,.18,0l26.51-10.2h6.64v3.75"></path>
    <path d="M104.1,32.77a1.3,1.3,0,0,0,1.3,1.3h22.21a1.3,1.3,0,0,0,0-2.6H105.4A1.3,1.3,0,0,0,104.1,32.77Z"></path>
    <path d="M123.31,19,102.4,24.68a1.3,1.3,0,1,0,.68,2.51L124,21.5a1.3,1.3,0,0,0-.68-2.51Z"></path>
    <path d="M102.36,39.85l19.92,6a1.3,1.3,0,0,0,.75-2.49l-19.92-6a1.3,1.3,0,0,0-.75,2.49Z"></path>
    <path d="M25.44,32.77a1.3,1.3,0,0,0,1.3,1.3H48.95a1.3,1.3,0,0,0,0-2.6H26.74A1.3,1.3,0,0,0,25.44,32.77Z"></path>
    <path d="M51.26,27.19a1.29,1.29,0,0,0,.35,0A1.3,1.3,0,0,0,52,24.68L33,19.33a1.3,1.3,0,0,0-.71,2.5Z"></path>
    <path d="M34,45.22a1.31,1.31,0,0,0,.38-.06L52,39.85a1.3,1.3,0,0,0-.75-2.49L33.61,42.67A1.3,1.3,0,0,0,34,45.22Z"></path>
  </g>

  <g class="svg-text">
    <path d="M3.29,91.71V95h7.62v3.12H3.29v6H0V88.59H11.94v3.12Z"></path>
    <path d="M24.16,104.21l-1.23-2.95H17.25L16,104.21H13L18.77,91h2.73l5.76,13.23Zm-4.07-9.76L18.3,98.71h3.57Z"></path>
    <path d="M38.64,104.21,35.76,100H33.44v4.2h-3V91.08h6.15c3.17,0,5.07,1.63,5.07,4.33v0a4.08,4.08,0,0,1-2.88,4.07l3.28,4.69Zm.06-8.65c0-1.24-.88-1.88-2.32-1.88H33.44v3.77h3c1.44,0,2.27-.75,2.27-1.86Z"></path>
    <path d="M46.28,104.21V91.08H56.43v2.57h-7.2v2.66h6.34v2.57H49.22v2.76h7.3v2.57Z"></path>
    <path d="M71.27,104.21V97.66H64.79v6.55H61.65V88.59h3.14V94.7h6.48V88.59h3.28v15.62Z"></path>
    <path d="M88.8,104.21l-1.23-2.95H81.89l-1.23,2.95h-3L83.41,91h2.73l5.76,13.23Zm-4.07-9.76-1.79,4.26h3.57Z"></path>
    <path d="M103.28,104.21,100.4,100H98.08v4.2h-3V91.08h6.15c3.17,0,5.07,1.63,5.07,4.33v0a4.08,4.08,0,0,1-2.88,4.07l3.28,4.69Zm.06-8.65c0-1.24-.88-1.88-2.32-1.88H98.08v3.77h3c1.44,0,2.27-.75,2.27-1.86Z"></path>
    <path d="M116.93,104.21h-6.4V91.08h6.24c2.75,0,4.44,1.33,4.44,3.4v0a3,3,0,0,1-1.77,2.83c1.56.58,2.52,1.46,2.52,3.23v0C122,103,120,104.21,116.93,104.21ZM118.28,95c0-.86-.69-1.35-1.94-1.35h-2.92v2.78h2.73c1.31,0,2.13-.41,2.13-1.39Zm.75,5.25c0-.88-.67-1.43-2.19-1.43h-3.42v2.89h3.51c1.31,0,2.09-.45,2.09-1.43Z"></path>
    <path d="M132.47,104.44a6.81,6.81,0,0,1-7.12-6.76v0a7.15,7.15,0,0,1,14.29,0v0A6.88,6.88,0,0,1,132.47,104.44Zm4.07-6.79a4,4,0,0,0-4.07-4.13,4,4,0,0,0-4,4.09v0a4,4,0,0,0,4.07,4.13,4,4,0,0,0,4-4.09Z"></path>
    <path d="M152,104.21l-2.88-4.2h-2.32v4.2h-3V91.08h6.15c3.17,0,5.07,1.63,5.07,4.33v0a4.08,4.08,0,0,1-2.88,4.07l3.28,4.69Zm.06-8.65c0-1.24-.88-1.88-2.32-1.88h-2.94v3.77h3c1.44,0,2.27-.75,2.27-1.86Z"></path>
  </g>
</svg>